<?xml version="1.0" standalone="no"?>
<!DOCTYPE svg PUBLIC "-//W3C//DTD SVG 20010904//EN"
 "http://www.w3.org/TR/2001/REC-SVG-20010904/DTD/svg10.dtd">
<svg version="1.0" xmlns="http://www.w3.org/2000/svg"
 width="512.000000pt" height="512.000000pt" viewBox="0 0 512.000000 512.000000"
 preserveAspectRatio="xMidYMid meet">

<g transform="translate(0.000000,512.000000) scale(0.100000,-0.100000)"
fill="#000000" stroke="none">
<path d="M2330 5110 c-890 -86 -1671 -622 -2060 -1415 -161 -327 -236 -606
-262 -973 -24 -335 30 -719 147 -1038 54 -148 184 -404 271 -534 189 -283 435
-530 715 -718 519 -349 1171 -495 1794 -403 721 107 1354 513 1767 1133 80
120 212 381 263 522 117 319 171 703 147 1038 -13 191 -32 304 -77 484 -45
177 -91 298 -185 489 -134 272 -293 489 -517 705 -208 202 -386 327 -648 455
-250 123 -480 195 -750 236 -151 23 -462 32 -605 19z m-63 -402 l23 -21 0
-578 c0 -318 -3 -585 -6 -594 -4 -9 -53 -38 -109 -65 -130 -61 -210 -115 -300
-204 -88 -87 -143 -168 -205 -301 -27 -56 -56 -105 -65 -109 -9 -3 -276 -6
-594 -6 l-578 0 -20 23 c-33 37 -34 54 -7 175 180 816 799 1458 1608 1667 157
41 220 44 253 13z m825 -12 c785 -199 1393 -799 1599 -1580 16 -61 32 -139 35
-173 6 -57 5 -63 -19 -87 l-26 -26 -575 0 -575 0 -25 23 c-13 12 -38 55 -54
94 -88 215 -299 423 -513 509 -35 14 -74 36 -86 50 l-23 25 0 575 0 575 25 24
c33 34 74 32 237 -9z m-341 -1552 c185 -58 334 -208 395 -398 54 -167 28 -369
-66 -514 -80 -125 -195 -213 -334 -258 -109 -35 -257 -37 -361 -4 -140 44
-267 140 -347 264 -122 189 -122 463 0 652 157 242 439 344 713 258z m1954
-879 c32 -31 32 -60 0 -198 -50 -222 -153 -471 -278 -674 -303 -488 -813 -851
-1376 -979 -136 -31 -165 -31 -196 1 l-25 24 0 575 0 575 23 24 c12 13 53 37
91 52 212 87 424 299 510 510 16 39 40 80 53 93 l24 22 575 0 575 0 24 -25z
m-3837 -252 c23 -20 102 -201 109 -251 13 -82 -79 -134 -142 -79 -27 24 -115
225 -115 265 0 13 13 37 29 53 34 34 87 39 119 12z m288 -536 c11 -7 48 -44
82 -84 34 -39 94 -100 133 -135 110 -96 119 -107 119 -145 0 -25 -8 -43 -30
-65 -59 -59 -107 -32 -303 172 -126 129 -146 164 -127 210 21 51 81 73 126 47z"/>
<path d="M2518 2815 c-54 -30 -63 -86 -22 -134 l26 -31 169 0 c167 0 170 0
194 25 35 34 34 93 -1 126 -25 23 -32 24 -182 26 -125 2 -163 0 -184 -12z"/>
<path d="M2675 2445 c-56 -55 -16 -145 63 -145 51 0 82 32 82 84 0 50 -36 86
-85 86 -25 0 -44 -8 -60 -25z"/>
</g>
</svg>
